PathFileType	4	(X/Y/Z)	./resultDataOpenSim/trcMotMarkerGrf/sub10/qtm-04-05.trc
DataRate	CameraRate	NumFrames	NumMarkers	Units	OrigDataRate	OrigDataStartFrame	OrigNumFrames
250.000000	250.000000	8	24	m	250.000000	185	493
Frame#	Time	L.Toe.Tip			R.Toe.Tip			L.Ankle.Lat			R.Ankle.Lat			L.Ankle.Med			R.Ankle.Med			L.Heel			R.Heel			L.Knee.Lat			R.Knee.Lat			L.Knee.Med			R.Knee.Med			L.Thigh.Upper			R.Thigh.Upper			L.ASIS			R.ASIS			V.Sacral			L.Acromium			R.Acromium			C7			L.Elbow			R.Elbow			L.Wrist.Lat			R.Wrist.Lat
		X1	Y1	Z1	X2	Y2	Z2	X3	Y3	Z3	X4	Y4	Z4	X5	Y5	Z5	X6	Y6	Z6	X7	Y7	Z7	X8	Y8	Z8	X9	Y9	Z9	X10	Y10	Z10	X11	Y11	Z11	X12	Y12	Z12	X13	Y13	Z13	X14	Y14	Z14	X15	Y15	Z15	X16	Y16	Z16	X17	Y17	Z17	X18	Y18	Z18	X19	Y19	Z19	X20	Y20	Z20	X21	Y21	Z21	X22	Y22	Z22	X23	Y23	Z23	X24	Y24	Z24

185	0.736	0.097416733	-0.032406934	-0.12882675	-0.66516491	0.035970702	-0.035581552	-0.035055632	-0.0067127071	-0.17905196	-0.72815627	0.16167122	-0.010569235	-0.044121728	0.012589445	-0.095319401	-0.68084863	0.14944365	-0.083077605	-0.10438932	-0.035987477	-0.14663546	-0.76701444	0.18032712	-0.068845519	-0.0051226688	0.38053546	-0.18744217	-0.39649319	0.36422694	0.048925691	-0.020441766	0.35530226	-0.067584715	-0.34455893	0.33972409	-0.0674535	-0.1108993	0.75505052	-0.25573125	-0.29759528	0.74450638	0.089080684	-0.098781719	0.85475844	-0.16498974	-0.19034445	0.83310723	0.060267428	-0.32611531	0.85002224	-0.13922404	-0.22976947	1.3069598	-0.24923046	-0.25039244	1.3202748	0.070736909	-0.3211731	1.3353195	-0.10324886	-0.43731463	1.0502129	-0.33253188	-0.22855157	0.96044388	0.11934098	-0.40839249	0.81994434	-0.4096292	0.011054957	0.8855654	0.095248059
186	0.74	0.097618209	-0.032495409	-0.12875342	-0.66338647	0.035995112	-0.035974413	-0.034509006	-0.0066387201	-0.17889823	-0.71956487	0.16595008	-0.010792015	-0.043724329	0.012824615	-0.095244454	-0.67126462	0.15141481	-0.082093676	-0.10423692	-0.035853946	-0.1466977	-0.75627911	0.18626181	-0.069453108	0.0021416831	0.38102858	-0.18629433	-0.38534895	0.36218403	0.050893907	-0.01511893	0.3562261	-0.066458162	-0.33165466	0.33532877	-0.064885154	-0.10437536	0.75557457	-0.25660435	-0.28939	0.74180001	0.089002439	-0.092536181	0.85453903	-0.16602437	-0.18283278	0.83139261	0.058972567	-0.31895889	0.84892024	-0.13853468	-0.22334122	1.3057795	-0.249994	-0.2431135	1.3192571	0.070162447	-0.314371	1.3345105	-0.1038209	-0.43016639	1.0485797	-0.33276076	-0.22342533	0.95935749	0.11826157	-0.40221177	0.81843536	-0.41038309	0.015252233	0.88128565	0.095781097
187	0.744	0.09775262	-0.032580242	-0.12874179	-0.66101296	0.036518923	-0.036461554	-0.03410747	-0.0066197891	-0.17882145	-0.71051044	0.17014834	-0.010775549	-0.043422329	0.012939562	-0.095228608	-0.66162035	0.15351447	-0.081241144	-0.1041616	-0.035755415	-0.14677693	-0.74546257	0.1920817	-0.069812664	0.009165795	0.3813839	-0.18523833	-0.37407124	0.36017576	0.052857875	-0.0098395959	0.35709364	-0.06556195	-0.31842985	0.3308999	-0.06215494	-0.097949272	0.75591629	-0.25740187	-0.28122237	0.73914023	0.089017108	-0.086304137	0.85437791	-0.16702363	-0.17550805	0.82973724	0.057717678	-0.31209757	0.84821131	-0.13722635	-0.21692112	1.3046764	-0.25068442	-0.23584824	1.3182625	0.069597792	-0.30753893	1.3337954	-0.10432222	-0.42290296	1.046925	-0.33295166	-0.21846427	0.95832154	0.11718997	-0.39591173	0.81693471	-0.41109349	0.019292436	0.87694757	0.096338211
188	0.748	0.097841133	-0.032653629	-0.12877071	-0.65804256	0.037635602	-0.036960259	-0.033798757	-0.0066344283	-0.17880742	-0.70091013	0.17436368	-0.010537899	-0.043196408	0.012974233	-0.095258423	-0.6518834	0.15576957	-0.080516465	-0.10413491	-0.035661123	-0.14687028	-0.73450577	0.19787596	-0.06994226	0.015851991	0.3814888	-0.18430686	-0.36272151	0.35822565	0.054815336	-0.0046096637	0.35782097	-0.064917883	-0.30494023	0.32650897	-0.059313528	-0.091642731	0.75606756	-0.25813957	-0.27312291	0.73655202	0.089097696	-0.080113053	0.85422045	-0.16799799	-0.16841053	0.82813744	0.056561921	-0.30560059	0.84766409	-0.13579651	-0.21050812	1.3036568	-0.25130706	-0.22862689	1.3172801	0.069047566	-0.30071307	1.3331477	-0.10474315	-0.41553466	1.0452486	-0.33310155	-0.21358651	0.95736088	0.11617237	-0.38947124	0.81544203	-0.41176908	0.023174736	0.87256166	0.096920006
189	0.752	0.097905136	-0.032711401	-0.12880864	-0.65461232	0.039289083	-0.037367201	-0.033514898	-0.0066969711	-0.17880799	-0.69070801	0.17863909	-0.010148375	-0.042983831	0.012945239	-0.095288481	-0.64193597	0.15813011	-0.079848136	-0.10412854	-0.035568568	-0.14697397	-0.72314205	0.20369551	-0.069938057	0.022097825	0.38126803	-0.18355206	-0.35129134	0.35633913	0.056755795	0.00060329059	0.35831704	-0.064501803	-0.29127548	0.32223579	-0.056414538	-0.08547799	0.75603002	-0.25883708	-0.26512949	0.73406355	0.089222589	-0.074000638	0.85402847	-0.1689619	-0.16151331	0.82659965	0.055521378	-0.29952562	0.8470062	-0.13465585	-0.20409732	1.3027224	-0.25187421	-0.22146774	1.316319	0.068512595	-0.29393445	1.3325529	-0.10509287	-0.40807181	1.0435442	-0.33320513	-0.2087002	0.95649811	0.11526823	-0.38286353	0.81394545	-0.41241859	0.026900216	0.86814179	0.097529702
190	0.756	0.097958562	-0.032758137	-0.12883565	-0.65087106	0.041343535	-0.037604284	-0.03321483	-0.0068282839	-0.17877213	-0.67999319	0.18294138	-0.0097085191	-0.042736115	0.012858444	-0.095273501	-0.63168235	0.16051488	-0.079164972	-0.10412466	-0.035490122	-0.1470723	-0.71107879	0.20949255	-0.06994344	0.027808714	0.38071822	-0.18303699	-0.33975171	0.35453375	0.058670524	0.0058207908	0.35851714	-0.064284089	-0.2775465	0.31818277	-0.053561792	-0.079469923	0.7558116	-0.25950037	-0.25727652	0.73170612	0.089391435	-0.0680073	0.85378577	-0.1699306	-0.15470182	0.82513924	0.054541116	-0.29380057	0.8460592	-0.13408169	-0.19768498	1.3018758	-0.25240019	-0.21436686	1.3154012	0.067991826	-0.28723785	1.332008	-0.10539089	-0.40053004	1.0418107	-0.33323996	-0.20377129	0.95572294	0.11449088	-0.37608527	0.81243484	-0.41303664	0.030469584	0.86370056	0.098169612
191	0.76	0.098008061	-0.032802236	-0.12884779	-0.64686566	0.043697164	-0.037633898	-0.032894214	-0.0070236956	-0.17867086	-0.66900277	0.18720963	-0.0093089174	-0.042450022	0.01272493	-0.095189028	-0.62109288	0.16286849	-0.078428726	-0.10411612	-0.035428516	-0.14713078	-0.69820385	0.21518619	-0.070027136	0.032926588	0.37989491	-0.18280788	-0.32809487	0.35284134	0.060550852	0.010998462	0.35841068	-0.064262456	-0.26384873	0.31448359	-0.050905751	-0.073620136	0.75543196	-0.2601206	-0.24957545	0.7295208	0.089612334	-0.062166808	0.85349973	-0.17091499	-0.1478352	0.82377721	0.053536889	-0.28822198	0.8447664	-0.13418004	-0.19127042	1.3011261	-0.25289375	-0.2073112	1.3145506	0.067487786	-0.28064707	1.3315105	-0.10565718	-0.39293394	1.0400616	-0.3331627	-0.19878562	0.95502384	0.11380975	-0.36915432	0.81092007	-0.41360316	0.033879083	0.85924462	0.098844216
192	0.764	0.098055527	-0.032847626	-0.12884654	-0.64250767	0.046328664	-0.03744766	-0.032569878	-0.0072543461	-0.17850083	-0.65800945	0.1913914	-0.0090091502	-0.04215497	0.012559784	-0.095029948	-0.61018864	0.16518544	-0.077635536	-0.10410237	-0.035376684	-0.14711348	-0.68466077	0.22074584	-0.070117782	0.037447456	0.37886809	-0.18287128	-0.31633824	0.35129121	0.062375358	0.016031996	0.35802366	-0.064441286	-0.25020981	0.31128576	-0.048531337	-0.067918302	0.75493292	-0.2606928	-0.24202784	0.72756877	0.089867549	-0.056496697	0.85319797	-0.17191401	-0.14083701	0.82252922	0.052460634	-0.28255106	0.84321206	-0.13480391	-0.18485176	1.3004851	-0.25335609	-0.2003036	1.3137852	0.06701069	-0.27417106	1.3310611	-0.10589853	-0.38530032	1.0383192	-0.33294213	-0.19372323	0.95443074	0.11318094	-0.36207991	0.80942946	-0.41410139	0.037115596	0.85477638	0.099563652
